# xmcd
#
# Track frame offsets: 
#        150
#        13830
#        30087
#        55621
#        76078
#        106892
#        121632
#        139423
#        153169
#
# Disc length: 2334 seconds
#
# Revision: 0
# Processed by: cddbd v1.5.2PL0 Copyright (c) Steve Scherf et al.
# Submitted via: ExactAudioCopy v0.99pb4
#
DISCID=5a091c09
DTITLE=Betsy Olson - Lonely Woman Blues
DYEAR=2009
DGENRE=
TTITLE0=Long Time
TTITLE1=Never Again
TTITLE2=Heartless
TTITLE3=Waitin'
TTITLE4=Get Your Gun
TTITLE5=Killer
TTITLE6=Lonely Woman Blues
TTITLE7=So Lonely
TTITLE8=Look At The City
EXTD=
EXTT0=
EXTT1=
EXTT2=
EXTT3=
EXTT4=
EXTT5=
EXTT6=
EXTT7=
EXTT8=
PLAYORDER=
